<svg width="117" height="36" viewBox="0 0 117 36" fill="none" xmlns="http://www.w3.org/2000/svg">
<path d="M28.1247 4C28.7978 6.00815 30.3739 7.58426 32.382 8.2573C30.3739 8.93035 28.7978 10.5065 28.1247 12.5146C27.4517 10.5065 25.8756 8.93035 23.8674 8.2573C25.8756 7.58426 27.4517 6.00815 28.1247 4Z" fill="#171717"/>
<path fill-rule="evenodd" clip-rule="evenodd" d="M21.0292 9.67641C24.1642 9.67641 26.7056 12.2178 26.7056 15.3528V21.0292C26.7056 24.1642 24.1642 26.7056 21.0292 26.7056H9.67641C6.54141 26.7056 4 24.1642 4 21.0292V9.67641H21.0292ZM16.7719 12.5146C15.9882 12.5146 15.3528 13.15 15.3528 13.9337V18.191C15.3528 18.9748 15.9882 19.6101 16.7719 19.6101C17.5557 19.6101 18.191 18.9748 18.191 18.191V13.9337C18.191 13.15 17.5557 12.5146 16.7719 12.5146ZM22.4483 12.5146C21.6646 12.5146 21.0292 13.15 21.0292 13.9337V18.191C21.0292 18.9748 21.6646 19.6101 22.4483 19.6101C23.2321 19.6101 23.8674 18.9748 23.8674 18.191V13.9337C23.8674 13.15 23.2321 12.5146 22.4483 12.5146Z" fill="#171717"/>
<path d="M66.5145 24.0905C65.6802 24.0905 64.9429 23.9709 64.3027 23.7316C63.6624 23.4923 63.1353 23.1431 62.7214 22.6839C62.314 22.2247 62.0488 21.6686 61.926 21.0154L64.2833 20.5691C64.432 21.1059 64.6939 21.5069 65.069 21.772C65.4506 22.0307 65.9486 22.1601 66.563 22.1601C67.1838 22.1601 67.6753 22.0372 68.0375 21.7914C68.4061 21.5392 68.5905 21.2288 68.5905 20.8601C68.5905 20.5497 68.4708 20.2943 68.2315 20.0938C67.9922 19.8868 67.6236 19.7284 67.1256 19.6184L65.2728 19.2207C64.2509 19.0008 63.4878 18.6386 62.9833 18.1342C62.4789 17.6297 62.2267 16.9798 62.2267 16.1843C62.2267 15.5117 62.411 14.9297 62.7796 14.4382C63.1483 13.9466 63.6592 13.5651 64.3124 13.2935C64.972 13.0218 65.7352 12.886 66.6018 12.886C67.4231 12.886 68.1281 13.0024 68.7166 13.2352C69.3116 13.4681 69.7901 13.7947 70.1523 14.215C70.5209 14.6289 70.7764 15.1172 70.9187 15.6799L68.6681 16.1261C68.5452 15.7445 68.3221 15.4244 67.9987 15.1657C67.6753 14.9006 67.2194 14.768 66.6309 14.768C66.0941 14.768 65.6446 14.8876 65.2825 15.1269C64.9268 15.3597 64.7489 15.6605 64.7489 16.0291C64.7489 16.346 64.8686 16.6079 65.1078 16.8149C65.3471 17.0218 65.7416 17.1835 66.2914 17.2999L68.1345 17.688C69.1628 17.9078 69.9259 18.2603 70.4239 18.7454C70.9219 19.2304 71.1709 19.8545 71.1709 20.6176C71.1709 21.3032 70.9736 21.9078 70.5791 22.4317C70.1846 22.9491 69.6349 23.3565 68.93 23.654C68.2315 23.945 67.4264 24.0905 66.5145 24.0905Z" fill="#171717"/>
<path d="M72.5395 23.8674V13.0218H75.0617V23.8674H72.5395ZM72.491 11.4503V9.07357H75.1102V11.4503H72.491Z" fill="#171717"/>
<path d="M94.7274 23.8674V21.0833H97.6085V23.8674H94.7274Z" fill="#171717"/>
<path d="M102.717 24.0905C102.032 24.0905 101.414 23.9677 100.864 23.7219C100.314 23.4697 99.8811 23.1011 99.5642 22.616C99.2474 22.131 99.0889 21.5327 99.0889 20.8213C99.0889 20.207 99.2021 19.6993 99.4284 19.2983C99.6613 18.8973 99.9717 18.5772 100.36 18.3379C100.754 18.0986 101.197 17.9175 101.689 17.7947C102.18 17.6718 102.691 17.5845 103.221 17.5327C103.849 17.4616 104.36 17.4002 104.754 17.3484C105.149 17.2967 105.437 17.2126 105.618 17.0962C105.805 16.9798 105.899 16.7987 105.899 16.5529V16.5044C105.899 16.1487 105.828 15.848 105.686 15.6023C105.543 15.35 105.33 15.1593 105.045 15.0299C104.767 14.8941 104.421 14.8262 104.007 14.8262C103.587 14.8262 103.221 14.8909 102.911 15.0202C102.607 15.1496 102.358 15.3177 102.164 15.5247C101.97 15.7316 101.828 15.9547 101.737 16.194L99.3993 15.7187C99.6127 15.0784 99.9426 14.5513 100.389 14.1374C100.835 13.7171 101.365 13.4034 101.98 13.1964C102.601 12.9895 103.273 12.886 103.998 12.886C104.508 12.886 105.023 12.9475 105.54 13.0703C106.064 13.1867 106.542 13.3872 106.976 13.6718C107.409 13.9563 107.758 14.3379 108.023 14.8165C108.289 15.2951 108.421 15.8965 108.421 16.6209V23.8674H106.006V22.3735H105.909C105.747 22.6774 105.524 22.962 105.239 23.2272C104.961 23.4859 104.612 23.696 104.192 23.8577C103.778 24.0129 103.286 24.0905 102.717 24.0905ZM103.367 22.2183C103.891 22.2183 104.34 22.1148 104.715 21.9078C105.097 21.7009 105.391 21.4293 105.598 21.093C105.812 20.7502 105.918 20.3783 105.918 19.9774V18.6968C105.834 18.7615 105.692 18.823 105.491 18.8812C105.297 18.9394 105.078 18.9911 104.832 19.0364C104.593 19.0816 104.353 19.1205 104.114 19.1528C103.881 19.1851 103.684 19.211 103.522 19.2304C103.147 19.2821 102.808 19.3662 102.504 19.4826C102.2 19.599 101.96 19.7639 101.786 19.9774C101.618 20.1843 101.534 20.4559 101.534 20.7922C101.534 21.1027 101.611 21.3646 101.766 21.578C101.928 21.785 102.145 21.9434 102.416 22.0534C102.694 22.1633 103.011 22.2183 103.367 22.2183Z" fill="#171717"/>
<path d="M110.304 23.8674V13.0218H112.826V23.8674H110.304ZM110.255 11.4503V9.07357H112.875V11.4503H110.255Z" fill="#171717"/>
<path d="M52.3888 25.7688L51.7971 27.7381C51.9652 27.8092 52.198 27.8707 52.4955 27.9224C52.7995 27.9741 53.1293 28 53.485 28C54.1382 28 54.7041 27.8933 55.1827 27.6799C55.6612 27.4664 56.0654 27.1528 56.3953 26.7389C56.7251 26.3314 57 25.8399 57.2199 25.2643L61.8763 13.0218H59.2085L57.1617 18.92C56.9288 19.612 56.7251 20.3072 56.5505 21.0057C56.487 21.2571 56.4236 21.5107 56.3601 21.7665C56.3018 21.5107 56.2456 21.2571 56.1916 21.0057C56.0428 20.3137 55.852 19.6184 55.6192 18.92L53.6402 13.0218H50.9434L55.0372 23.9062L54.8819 24.595C54.7979 25.0089 54.6556 25.3226 54.4551 25.536C54.2546 25.7559 54.0056 25.8852 53.7081 25.924C53.4106 25.9693 53.0711 25.9434 52.6895 25.8464L52.3888 25.7688Z" fill="#171717"/>
<path d="M80.4605 13.0218V10.4414H77.9382V13.0218H76.3958V15.0008H77.9382V21.0251C77.9382 21.9822 78.2163 22.7195 78.7725 23.2369C79.3287 23.7542 80.1274 24.0129 81.1686 24.0129C81.4338 24.0129 81.7119 23.9935 82.0029 23.9547C82.2939 23.9224 82.5785 23.8642 82.8566 23.7801L82.4589 21.8302C82.3424 21.8561 82.1872 21.8852 81.9932 21.9175C81.8057 21.9434 81.6537 21.9563 81.5373 21.9563C81.1557 21.9563 80.8808 21.8658 80.7127 21.6847C80.5445 21.4972 80.4605 21.2061 80.4605 20.8116V15.0008H82.5559V13.0218H80.4605Z" fill="#171717"/>
<path d="M35.1399 13.0218V23.8674H37.6621V17.2223C37.6621 16.7373 37.7526 16.3298 37.9337 16C38.1148 15.6702 38.3573 15.4212 38.6613 15.253C38.9717 15.0849 39.3112 15.0008 39.6799 15.0008C40.2167 15.0008 40.6564 15.169 40.9992 15.5053C41.342 15.8351 41.5133 16.2749 41.5133 16.8246V23.8674H43.9774V17.0574C43.9774 16.65 44.055 16.2943 44.2102 15.9903C44.3719 15.6799 44.6015 15.4373 44.899 15.2627C45.1964 15.0881 45.5457 15.0008 45.9466 15.0008C46.464 15.0008 46.907 15.156 47.2757 15.4665C47.6443 15.7769 47.8286 16.2684 47.8286 16.941V23.8674H50.3509V16.5529C50.3509 15.7445 50.1989 15.0687 49.8949 14.5255C49.591 13.9757 49.1803 13.5586 48.6629 13.274C48.1455 12.9895 47.5602 12.8472 46.907 12.8472C46.3444 12.8472 45.8141 12.9572 45.3161 13.177C44.8246 13.3905 44.3977 13.7138 44.0356 14.1471C43.7865 14.446 43.5882 14.7988 43.4406 15.2055C43.2347 14.517 42.9383 13.9766 42.5513 13.5845C42.0728 13.093 41.4422 12.8472 40.6597 12.8472C40.1811 12.8472 39.7219 12.9475 39.2821 13.1479C38.8488 13.342 38.4673 13.6427 38.1374 14.0501C37.9118 14.3344 37.7271 14.677 37.5833 15.0779L37.5069 13.0218H35.1399Z" fill="#171717"/>
<path d="M85.5445 23.4018C86.3335 23.861 87.2745 24.0905 88.3675 24.0905C89.1759 24.0905 89.8937 23.9709 90.5211 23.7316C91.1549 23.4859 91.6819 23.1463 92.1023 22.713C92.5227 22.2732 92.8202 21.7623 92.9948 21.1803L90.6763 20.7049C90.5663 21.0089 90.4014 21.2676 90.1815 21.481C89.9617 21.688 89.6997 21.8464 89.3958 21.9563C89.0983 22.0598 88.7652 22.1116 88.3966 22.1116C87.8404 22.1116 87.3521 21.9919 86.9317 21.7526C86.5114 21.5133 86.1848 21.1576 85.952 20.6855C85.7426 20.2609 85.6273 19.75 85.6063 19.1528H93.1597V18.3573C93.1597 17.4066 93.0271 16.5885 92.762 15.903C92.5033 15.211 92.1411 14.6419 91.6755 14.1956C91.2163 13.7494 90.686 13.4196 90.0845 13.2061C89.4895 12.9927 88.8622 12.886 88.2026 12.886C87.1678 12.886 86.2656 13.1253 85.496 13.6039C84.7329 14.076 84.1411 14.7324 83.7207 15.5732C83.3068 16.4139 83.0999 17.3937 83.0999 18.5125C83.0999 19.6443 83.3101 20.6273 83.7304 21.4616C84.1573 22.2959 84.762 22.9426 85.5445 23.4018ZM85.6159 17.4357C85.649 17.0283 85.7449 16.6532 85.9035 16.3104C86.1104 15.8707 86.4079 15.5214 86.7959 15.2627C87.184 14.9976 87.6561 14.865 88.2123 14.865C88.7684 14.865 89.2309 14.9943 89.5995 15.253C89.9746 15.5117 90.2559 15.8739 90.4435 16.3395C90.5773 16.6671 90.6633 17.0325 90.7017 17.4357H85.6159Z" fill="#171717"/>
</svg>
